<svg xmlns="http://www.w3.org/2000/svg" viewBox="0 0 200 44" width="200" height="44">
  <!-- Sketched flower -->
  <g stroke="#2D3E50" stroke-width="1" fill="none" stroke-linecap="round" stroke-linejoin="round">
    <!-- petals -->
    <path d="M17 22 Q14 18 17 14 Q20 18 17 22Z"/>
    <path d="M17 22 Q21 19 25 21 Q21 25 17 22Z"/>
    <path d="M17 22 Q20 26 17 30 Q14 26 17 22Z"/>
    <path d="M17 22 Q13 25 9 23 Q13 19 17 22Z"/>
    <!-- diagonal petals -->
    <path d="M17 22 Q13 18 14 14 Q18 16 17 22Z"/>
    <path d="M17 22 Q21 18 25 15 Q24 20 17 22Z"/>
    <path d="M17 22 Q21 26 24 29 Q20 28 17 22Z"/>
    <path d="M17 22 Q13 26 10 29 Q10 24 17 22Z"/>
    <!-- center circle -->
    <circle cx="17" cy="22" r="3" stroke-width="1"/>
    <circle cx="17" cy="22" r="1.2" fill="#2D3E50" opacity="0.35" stroke="none"/>
    <!-- small stem -->
    <path d="M17 30 Q17 34 16 36"/>
    <!-- two tiny leaves on stem -->
    <path d="M16.5 33 Q13 32 13 30 Q15.5 31 16.5 33Z"/>
    <path d="M16 35 Q19 33 20 31 Q18 33 16 35Z"/>
  </g>

  <!-- Main brand name -->
  <text x="34" y="20" font-family="Georgia,'Times New Roman',serif" font-size="14.5" font-weight="700" letter-spacing="2" fill="#1a2b3c">RENEWED REST</text>

  <!-- Rose divider line -->
  <line x1="34" y1="25" x2="196" y2="25" stroke="#C9967A" stroke-width="0.7" opacity="0.8"/>

  <!-- Tagline -->
  <text x="34" y="36" font-family="Georgia,'Times New Roman',serif" font-size="7.5" letter-spacing="2.2" fill="#6B7A8D">SLEEP CONSULTING</text>
</svg>
